<svg width="362" height="48" viewBox="0 0 362 48" fill="none" xmlns="http://www.w3.org/2000/svg">
<path d="M46.1051 11.02C44.5541 11.707 42.8861 12.165 41.1261 12.382C42.9151 11.32 44.2921 9.626 44.9381 7.624C43.2641 8.605 41.4091 9.326 39.4361 9.706C37.8601 8.036 35.6121 7 33.1221 7C28.3391 7 24.4611 10.843 24.4611 15.582C24.4611 16.253 24.5401 16.906 24.6871 17.54C17.4911 17.179 11.1081 13.758 6.83807 8.566C6.08807 9.835 5.66607 11.32 5.66607 12.888C5.66607 15.867 7.19107 18.49 9.51707 20.035C8.09707 19.992 6.76107 19.597 5.59107 18.963C5.59107 18.989 5.59107 19.027 5.59107 19.064C5.59107 23.227 8.57707 26.694 12.5351 27.483C11.8121 27.681 11.0471 27.791 10.2591 27.791C9.70007 27.791 9.15507 27.728 8.62707 27.633C9.72907 31.035 12.9261 33.522 16.7141 33.596C13.7501 35.894 10.0171 37.27 5.95807 37.27C5.25707 37.27 4.57107 37.23 3.89307 37.148C7.73007 39.577 12.2831 41 17.1711 41C33.0981 41 41.8121 27.921 41.8121 16.574C41.8121 16.202 41.8001 15.832 41.7831 15.466C43.4831 14.265 44.9481 12.751 46.1051 11.02Z" fill="url(#paint0_linear_1149_1758)"/>
<path d="M57.196 39V9.90909H67.5653C69.8286 9.90909 71.7036 10.321 73.1903 11.1449C74.6771 11.9687 75.7898 13.0956 76.5284 14.5256C77.267 15.946 77.6364 17.5464 77.6364 19.3267C77.6364 21.1165 77.2623 22.7263 76.5142 24.1562C75.7756 25.5767 74.6581 26.7036 73.1619 27.5369C71.6752 28.3608 69.8049 28.7727 67.5511 28.7727H60.4205V25.0511H67.1534C68.5833 25.0511 69.7434 24.8049 70.6335 24.3125C71.5237 23.8106 72.1771 23.1288 72.5938 22.267C73.0104 21.4053 73.2188 20.4252 73.2188 19.3267C73.2188 18.2282 73.0104 17.2528 72.5938 16.4006C72.1771 15.5483 71.5189 14.8807 70.6193 14.3977C69.7292 13.9148 68.5549 13.6733 67.0966 13.6733H61.5852V39H57.196ZM82.4411 39V17.1818H86.5462V20.6477H86.7734C87.1712 19.4735 87.8719 18.5502 88.8757 17.8778C89.889 17.196 91.0348 16.8551 92.3132 16.8551C92.5784 16.8551 92.8909 16.8646 93.2507 16.8835C93.62 16.9025 93.9089 16.9261 94.1172 16.9545V21.017C93.9467 20.9697 93.6437 20.9176 93.2081 20.8608C92.7725 20.7945 92.3369 20.7614 91.9013 20.7614C90.8975 20.7614 90.0026 20.9744 89.2166 21.4006C88.4401 21.8172 87.8246 22.3996 87.37 23.1477C86.9155 23.8864 86.6882 24.7292 86.6882 25.6761V39H82.4411ZM106.202 39.4403C104.156 39.4403 102.371 38.9716 100.847 38.0341C99.322 37.0966 98.1383 35.785 97.2955 34.0994C96.4527 32.4138 96.0312 30.4441 96.0312 28.1903C96.0312 25.9271 96.4527 23.9479 97.2955 22.2528C98.1383 20.5578 99.322 19.2415 100.847 18.304C102.371 17.3665 104.156 16.8977 106.202 16.8977C108.247 16.8977 110.032 17.3665 111.557 18.304C113.081 19.2415 114.265 20.5578 115.108 22.2528C115.951 23.9479 116.372 25.9271 116.372 28.1903C116.372 30.4441 115.951 32.4138 115.108 34.0994C114.265 35.785 113.081 37.0966 111.557 38.0341C110.032 38.9716 108.247 39.4403 106.202 39.4403ZM106.216 35.875C107.542 35.875 108.64 35.5246 109.511 34.8239C110.383 34.1231 111.027 33.1903 111.443 32.0256C111.869 30.8608 112.082 29.5777 112.082 28.1761C112.082 26.7841 111.869 25.5057 111.443 24.3409C111.027 23.1667 110.383 22.2244 109.511 21.5142C108.64 20.804 107.542 20.4489 106.216 20.4489C104.881 20.4489 103.773 20.804 102.892 21.5142C102.021 22.2244 101.372 23.1667 100.946 24.3409C100.529 25.5057 100.321 26.7841 100.321 28.1761C100.321 29.5777 100.529 30.8608 100.946 32.0256C101.372 33.1903 102.021 34.1231 102.892 34.8239C103.773 35.5246 104.881 35.875 106.216 35.875ZM131.496 17.1818V20.5909H119.167V17.1818H131.496ZM122.548 39V14.6534C122.548 13.2898 122.846 12.1581 123.442 11.2585C124.039 10.3494 124.83 9.67235 125.815 9.22727C126.799 8.77273 127.87 8.54545 129.025 8.54545C129.877 8.54545 130.606 8.61648 131.212 8.75852C131.818 8.8911 132.268 9.0142 132.562 9.12784L131.567 12.5653C131.369 12.5085 131.113 12.4422 130.8 12.3665C130.488 12.2812 130.109 12.2386 129.664 12.2386C128.632 12.2386 127.893 12.4943 127.448 13.0057C127.013 13.517 126.795 14.2557 126.795 15.2216V39H122.548ZM135.879 39V17.1818H140.126V39H135.879ZM138.023 13.8153C137.285 13.8153 136.65 13.5691 136.12 13.0767C135.599 12.5748 135.339 11.9782 135.339 11.2869C135.339 10.5862 135.599 9.98958 136.12 9.49716C136.65 8.99526 137.285 8.74432 138.023 8.74432C138.762 8.74432 139.392 8.99526 139.913 9.49716C140.443 9.98958 140.708 10.5862 140.708 11.2869C140.708 11.9782 140.443 12.5748 139.913 13.0767C139.392 13.5691 138.762 13.8153 138.023 13.8153ZM150.087 9.90909V39H145.839V9.90909H150.087ZM165.204 39.4403C163.054 39.4403 161.203 38.9811 159.65 38.0625C158.106 37.1345 156.913 35.8324 156.07 34.1562C155.237 32.4706 154.82 30.4962 154.82 28.233C154.82 25.9981 155.237 24.0284 156.07 22.3239C156.913 20.6193 158.087 19.2888 159.593 18.3324C161.108 17.3759 162.879 16.8977 164.906 16.8977C166.137 16.8977 167.33 17.1013 168.485 17.5085C169.64 17.9157 170.677 18.5549 171.596 19.4261C172.514 20.2973 173.239 21.429 173.769 22.821C174.299 24.2036 174.565 25.8845 174.565 27.8636V29.3693H157.221V26.1875H170.403C170.403 25.0701 170.175 24.0805 169.721 23.2188C169.266 22.3475 168.627 21.661 167.803 21.1591C166.989 20.6572 166.032 20.4062 164.934 20.4062C163.741 20.4062 162.699 20.6998 161.809 21.2869C160.928 21.8646 160.246 22.6222 159.763 23.5597C159.29 24.4877 159.053 25.4962 159.053 26.5852V29.071C159.053 30.5294 159.309 31.7699 159.82 32.7926C160.341 33.8153 161.066 34.5966 161.994 35.1364C162.922 35.6667 164.006 35.9318 165.246 35.9318C166.051 35.9318 166.785 35.8182 167.448 35.5909C168.111 35.3542 168.684 35.0038 169.167 34.5398C169.65 34.0758 170.019 33.5028 170.275 32.821L174.295 33.5455C173.973 34.7292 173.395 35.7661 172.562 36.6562C171.738 37.5369 170.701 38.2235 169.451 38.7159C168.21 39.1989 166.795 39.4403 165.204 39.4403Z" fill="#138DE5"/>
<path d="M208.911 9.90909H213.315V29.0426C213.315 31.0786 212.836 32.8826 211.88 34.4545C210.924 36.017 209.579 37.2481 207.846 38.1477C206.113 39.0379 204.082 39.483 201.752 39.483C199.432 39.483 197.406 39.0379 195.673 38.1477C193.94 37.2481 192.595 36.017 191.638 34.4545C190.682 32.8826 190.204 31.0786 190.204 29.0426V9.90909H194.593V28.6875C194.593 30.0038 194.882 31.1733 195.46 32.196C196.047 33.2188 196.875 34.0237 197.945 34.6108C199.015 35.1884 200.284 35.4773 201.752 35.4773C203.229 35.4773 204.503 35.1884 205.573 34.6108C206.653 34.0237 207.477 33.2188 208.045 32.196C208.622 31.1733 208.911 30.0038 208.911 28.6875V9.90909ZM219.355 47.1818V17.1818H223.503V20.7188H223.858C224.104 20.2642 224.459 19.7386 224.923 19.142C225.387 18.5455 226.031 18.0246 226.855 17.5795C227.679 17.125 228.768 16.8977 230.122 16.8977C231.884 16.8977 233.455 17.3428 234.838 18.233C236.221 19.1231 237.305 20.4062 238.091 22.0824C238.886 23.7585 239.284 25.7756 239.284 28.1335C239.284 30.4915 238.891 32.5133 238.105 34.1989C237.319 35.875 236.24 37.1676 234.866 38.0767C233.493 38.9763 231.926 39.4261 230.165 39.4261C228.839 39.4261 227.755 39.2036 226.912 38.7585C226.079 38.3134 225.425 37.7926 224.952 37.196C224.478 36.5994 224.114 36.0691 223.858 35.6051H223.602V47.1818H219.355ZM223.517 28.0909C223.517 29.625 223.74 30.9697 224.185 32.125C224.63 33.2803 225.274 34.1847 226.116 34.8381C226.959 35.482 227.991 35.804 229.213 35.804C230.482 35.804 231.543 35.4678 232.395 34.7955C233.247 34.1136 233.891 33.1903 234.327 32.0256C234.772 30.8608 234.994 29.5492 234.994 28.0909C234.994 26.6515 234.777 25.3589 234.341 24.2131C233.915 23.0672 233.271 22.1629 232.409 21.5C231.557 20.8371 230.491 20.5057 229.213 20.5057C227.982 20.5057 226.94 20.8229 226.088 21.4574C225.245 22.0919 224.606 22.9773 224.17 24.1136C223.735 25.25 223.517 26.5758 223.517 28.0909ZM248.29 9.90909V39H244.043V9.90909H248.29ZM263.194 39.4403C261.148 39.4403 259.363 38.9716 257.839 38.0341C256.314 37.0966 255.13 35.785 254.288 34.0994C253.445 32.4138 253.023 30.4441 253.023 28.1903C253.023 25.9271 253.445 23.9479 254.288 22.2528C255.13 20.5578 256.314 19.2415 257.839 18.304C259.363 17.3665 261.148 16.8977 263.194 16.8977C265.239 16.8977 267.024 17.3665 268.549 18.304C270.074 19.2415 271.257 20.5578 272.1 22.2528C272.943 23.9479 273.364 25.9271 273.364 28.1903C273.364 30.4441 272.943 32.4138 272.1 34.0994C271.257 35.785 270.074 37.0966 268.549 38.0341C267.024 38.9716 265.239 39.4403 263.194 39.4403ZM263.208 35.875C264.534 35.875 265.632 35.5246 266.504 34.8239C267.375 34.1231 268.019 33.1903 268.435 32.0256C268.862 30.8608 269.075 29.5777 269.075 28.1761C269.075 26.7841 268.862 25.5057 268.435 24.3409C268.019 23.1667 267.375 22.2244 266.504 21.5142C265.632 20.804 264.534 20.4489 263.208 20.4489C261.873 20.4489 260.765 20.804 259.884 21.5142C259.013 22.2244 258.364 23.1667 257.938 24.3409C257.522 25.5057 257.313 26.7841 257.313 28.1761C257.313 29.5777 257.522 30.8608 257.938 32.0256C258.364 33.1903 259.013 34.1231 259.884 34.8239C260.765 35.5246 261.873 35.875 263.208 35.875ZM284.455 39.483C283.072 39.483 281.822 39.2273 280.705 38.7159C279.587 38.1951 278.702 37.4422 278.048 36.4574C277.404 35.4725 277.082 34.2652 277.082 32.8352C277.082 31.6042 277.319 30.5909 277.793 29.7955C278.266 29 278.905 28.3703 279.71 27.9062C280.515 27.4422 281.415 27.0919 282.409 26.8551C283.403 26.6184 284.417 26.4384 285.449 26.3153C286.756 26.1638 287.816 26.0407 288.631 25.946C289.445 25.8419 290.037 25.6761 290.406 25.4489C290.776 25.2216 290.96 24.8523 290.96 24.3409V24.2415C290.96 23.0009 290.61 22.0398 289.909 21.358C289.218 20.6761 288.186 20.3352 286.812 20.3352C285.383 20.3352 284.256 20.6525 283.432 21.2869C282.617 21.9119 282.054 22.608 281.741 23.375L277.75 22.4659C278.223 21.1402 278.915 20.0701 279.824 19.2557C280.742 18.4318 281.798 17.8352 282.991 17.4659C284.185 17.0871 285.439 16.8977 286.756 16.8977C287.627 16.8977 288.55 17.0019 289.526 17.2102C290.51 17.4091 291.429 17.7784 292.281 18.3182C293.143 18.858 293.848 19.6297 294.398 20.6335C294.947 21.6278 295.222 22.9205 295.222 24.5114V39H291.074V36.017H290.903C290.629 36.5663 290.217 37.1061 289.668 37.6364C289.118 38.1667 288.413 38.607 287.551 38.9574C286.689 39.3078 285.657 39.483 284.455 39.483ZM285.378 36.0739C286.552 36.0739 287.556 35.8419 288.389 35.3778C289.232 34.9138 289.871 34.3078 290.307 33.5597C290.752 32.8021 290.974 31.9924 290.974 31.1307V28.3182C290.823 28.4697 290.529 28.6117 290.094 28.7443C289.668 28.8674 289.18 28.9763 288.631 29.071C288.081 29.1562 287.546 29.2367 287.026 29.3125C286.505 29.3788 286.069 29.4356 285.719 29.483C284.895 29.5871 284.142 29.7623 283.46 30.0085C282.788 30.2547 282.248 30.6098 281.841 31.0739C281.443 31.5284 281.244 32.1345 281.244 32.892C281.244 33.9432 281.633 34.7386 282.409 35.2784C283.186 35.8087 284.175 36.0739 285.378 36.0739ZM309.046 39.4261C307.285 39.4261 305.713 38.9763 304.33 38.0767C302.957 37.1676 301.878 35.875 301.092 34.1989C300.315 32.5133 299.927 30.4915 299.927 28.1335C299.927 25.7756 300.32 23.7585 301.106 22.0824C301.901 20.4062 302.99 19.1231 304.373 18.233C305.755 17.3428 307.323 16.8977 309.075 16.8977C310.429 16.8977 311.518 17.125 312.342 17.5795C313.175 18.0246 313.819 18.5455 314.273 19.142C314.737 19.7386 315.097 20.2642 315.353 20.7188H315.609V9.90909H319.856V39H315.708V35.6051H315.353C315.097 36.0691 314.728 36.5994 314.245 37.196C313.772 37.7926 313.118 38.3134 312.285 38.7585C311.451 39.2036 310.372 39.4261 309.046 39.4261ZM309.984 35.804C311.205 35.804 312.237 35.482 313.08 34.8381C313.933 34.1847 314.576 33.2803 315.012 32.125C315.457 30.9697 315.68 29.625 315.68 28.0909C315.68 26.5758 315.462 25.25 315.026 24.1136C314.591 22.9773 313.951 22.0919 313.109 21.4574C312.266 20.8229 311.224 20.5057 309.984 20.5057C308.705 20.5057 307.64 20.8371 306.788 21.5C305.935 22.1629 305.291 23.0672 304.856 24.2131C304.43 25.3589 304.217 26.6515 304.217 28.0909C304.217 29.5492 304.434 30.8608 304.87 32.0256C305.306 33.1903 305.95 34.1136 306.802 34.7955C307.664 35.4678 308.724 35.804 309.984 35.804ZM335.321 39.4403C333.171 39.4403 331.32 38.9811 329.767 38.0625C328.223 37.1345 327.03 35.8324 326.188 34.1562C325.354 32.4706 324.938 30.4962 324.938 28.233C324.938 25.9981 325.354 24.0284 326.188 22.3239C327.03 20.6193 328.205 19.2888 329.71 18.3324C331.225 17.3759 332.996 16.8977 335.023 16.8977C336.254 16.8977 337.447 17.1013 338.602 17.5085C339.758 17.9157 340.795 18.5549 341.713 19.4261C342.632 20.2973 343.356 21.429 343.886 22.821C344.417 24.2036 344.682 25.8845 344.682 27.8636V29.3693H327.338V26.1875H340.52C340.52 25.0701 340.293 24.0805 339.838 23.2188C339.384 22.3475 338.744 21.661 337.92 21.1591C337.106 20.6572 336.15 20.4062 335.051 20.4062C333.858 20.4062 332.816 20.6998 331.926 21.2869C331.045 21.8646 330.364 22.6222 329.881 23.5597C329.407 24.4877 329.17 25.4962 329.17 26.5852V29.071C329.17 30.5294 329.426 31.7699 329.938 32.7926C330.458 33.8153 331.183 34.5966 332.111 35.1364C333.039 35.6667 334.123 35.9318 335.364 35.9318C336.169 35.9318 336.902 35.8182 337.565 35.5909C338.228 35.3542 338.801 35.0038 339.284 34.5398C339.767 34.0758 340.136 33.5028 340.392 32.821L344.412 33.5455C344.09 34.7292 343.512 35.7661 342.679 36.6562C341.855 37.5369 340.818 38.2235 339.568 38.7159C338.328 39.1989 336.912 39.4403 335.321 39.4403ZM349.394 39V17.1818H353.499V20.6477H353.727C354.124 19.4735 354.825 18.5502 355.829 17.8778C356.842 17.196 357.988 16.8551 359.266 16.8551C359.531 16.8551 359.844 16.8646 360.204 16.8835C360.573 16.9025 360.862 16.9261 361.07 16.9545V21.017C360.9 20.9697 360.597 20.9176 360.161 20.8608C359.726 20.7945 359.29 20.7614 358.854 20.7614C357.851 20.7614 356.956 20.9744 356.17 21.4006C355.393 21.8172 354.778 22.3996 354.323 23.1477C353.869 23.8864 353.641 24.7292 353.641 25.6761V39H349.394Z" fill="black"/>
<defs>
<linearGradient id="paint0_linear_1149_1758" x1="10.3411" y1="8.312" x2="40.7981" y2="38.769" gradientUnits="userSpaceOnUse">
<stop stop-color="#2AA4F4"/>
<stop offset="1" stop-color="#007AD9"/>
</linearGradient>
</defs>
</svg>
